{
  "accessors": [
    {
      "bufferView": 2,
      "componentType": 5126,
      "count": 65532,
      "max": [
        0.6343870162963867,
        0.43818700313568115,
        0.997169017791748
      ],
      "min": [
        -0.5751649737358093,
        -0.5782999992370605,
        -0.6193649768829346
      ],
      "type": "VEC3"
    },
    {
      "bufferView": 2,
      "byteOffset": 786384,
      "componentType": 5126,
      "count": 65532,
      "max": [
        0.9999967813491821,
        0.9999860525131226,
        0.9999372363090515
      ],
      "min": [
        -0.9999628067016602,
        -0.9999695420265198,
        -0.9999858736991882
      ],
      "type": "VEC3"
    },
    {
      "bufferView": 3,
      "componentType": 5126,
      "count": 65532,
      "max": [
        0.9999882578849792,
        0.9999690055847168,
        0.9999546408653259,
        1.0
      ],
      "min": [
        -0.9999956488609314,
        -0.9999995827674866,
        -0.999968409538269,
        -1.0
      ],
      "type": "VEC4"
    },
    {
      "bufferView": 1,
      "componentType": 5126,
      "count": 65532,
      "max": [
        0.9999740123748779,
        0.9983680248260498
      ],
      "min": [
        5.199999941396527e-05,
        0.003130972385406494
      ],
      "type": "VEC2"
    },
    {
      "bufferView": 1,
      "byteOffset": 524256,
      "componentType": 5126,
      "count": 65532,
      "max": [
        0.9999740123748779,
        0.9983680248260498
      ],
      "min": [
        5.199999941396527e-05,
        0.003130972385406494
      ],
      "type": "VEC2"
    },
    {
      "bufferView": 1,
      "byteOffset": 1048512,
      "componentType": 5126,
      "count": 65532,
      "max": [
        0.9999740123748779,
        0.9983680248260498
      ],
      "min": [
        5.199999941396527e-05,
        0.003130972385406494
      ],
      "type": "VEC2"
    },
    {
      "bufferView": 1,
      "byteOffset": 1572768,
      "componentType": 5126,
      "count": 65532,
      "max": [
        0.9999740123748779,
        0.9983680248260498
      ],
      "min": [
        5.199999941396527e-05,
        0.003130972385406494
      ],
      "type": "VEC2"
    },
    {
      "bufferView": 0,
      "componentType": 5125,
      "count": 347058,
      "type": "SCALAR"
    },
    {
      "bufferView": 2,
      "byteOffset": 1572768,
      "componentType": 5126,
      "count": 65532,
      "max": [
        0.7144910097122192,
        0.5721740126609802,
        0.15085700154304504
      ],
      "min": [
        -0.7106480002403259,
        -0.5681729912757874,
        -0.9966840147972107
      ],
      "type": "VEC3"
    },
    {
      "bufferView": 2,
      "byteOffset": 2359152,
      "componentType": 5126,
      "count": 65532,
      "max": [
        0.9999321699142456,
        0.9999958276748657,
        0.999869704246521
      ],
      "min": [
        -0.999927282333374,
        -0.9999759793281555,
        -0.9999194145202637
      ],
      "type": "VEC3"
    },
    {
      "bufferView": 3,
      "byteOffset": 1048512,
      "componentType": 5126,
      "count": 65532,
      "max": [
        0.999989926815033,
        0.9999112486839294,
        0.9997267723083496,
        -1.0
      ],
      "min": [
        -0.9999825954437256,
        -0.9999088644981384,
        -0.9997214078903198,
        -1.0
      ],
      "type": "VEC4"
    },
    {
      "bufferView": 1,
      "byteOffset": 2097024,
      "componentType": 5126,
      "count": 65532,
      "max": [
        0.9999650120735168,
        0.9998360276222229
      ],
      "min": [
        0.00010800000018207356,
        0.003153979778289795
      ],
      "type": "VEC2"
    },
    {
      "bufferView": 1,
      "byteOffset": 2621280,
      "componentType": 5126,
      "count": 65532,
      "max": [
        0.9999650120735168,
        0.9998360276222229
      ],
      "min": [
        0.00010800000018207356,
        0.003153979778289795
      ],
      "type": "VEC2"
    },
    {
      "bufferView": 1,
      "byteOffset": 3145536,
      "componentType": 5126,
      "count": 65532,
      "max": [
        0.9999650120735168,
        0.9998360276222229
      ],
      "min": [
        0.00010800000018207356,
        0.003153979778289795
      ],
      "type": "VEC2"
    },
    {
      "bufferView": 1,
      "byteOffset": 3669792,
      "componentType": 5126,
      "count": 65532,
      "max": [
        0.9999650120735168,
        0.9998360276222229
      ],
      "min": [
        0.00010800000018207356,
        0.003153979778289795
      ],
      "type": "VEC2"
    },
    {
      "bufferView": 0,
      "byteOffset": 1388232,
      "componentType": 5125,
      "count": 337995,
      "type": "SCALAR"
    },
    {
      "bufferView": 2,
      "byteOffset": 3145536,
      "componentType": 5126,
      "count": 37999,
      "max": [
        0.3626909852027893,
        0.2564449906349182,
        0.483474999666214
      ],
      "min": [
        -0.36847999691963196,
        -0.4399220049381256,
        0.005621999967843294
      ],
      "type": "VEC3"
    },
    {
      "bufferView": 2,
      "byteOffset": 3601524,
      "componentType": 5126,
      "count": 37999,
      "max": [
        0.999932050704956,
        0.9999537467956543,
        0.9999066591262817
      ],
      "min": [
        -0.999979555606842,
        -0.9999934434890747,
        -0.999961793422699
      ],
      "type": "VEC3"
    },
    {
      "bufferView": 3,
      "byteOffset": 2097024,
      "componentType": 5126,
      "count": 37999,
      "max": [
        0.9996882081031799,
        0.9999802708625793,
        0.9999844431877136,
        -1.0
      ],
      "min": [
        -0.9999836087226868,
        -0.9997133016586304,
        -0.9999688267707825,
        -1.0
      ],
      "type": "VEC4"
    },
    {
      "bufferView": 1,
      "byteOffset": 4194048,
      "componentType": 5126,
      "count": 37999,
      "max": [
        0.9999510049819946,
        0.9988729953765869
      ],
      "min": [
        0.001551999943330884,
        0.0035269856452941895
      ],
      "type": "VEC2"
    },
    {
      "bufferView": 1,
      "byteOffset": 4498040,
      "componentType": 5126,
      "count": 37999,
      "max": [
        0.9999510049819946,
        0.9988729953765869
      ],
      "min": [
        0.001551999943330884,
        0.0035269856452941895
      ],
      "type": "VEC2"
    },
    {
      "bufferView": 1,
      "byteOffset": 4802032,
      "componentType": 5126,
      "count": 37999,
      "max": [
        0.9999510049819946,
        0.9988729953765869
      ],
      "min": [
        0.001551999943330884,
        0.0035269856452941895
      ],
      "type": "VEC2"
    },
    {
      "bufferView": 1,
      "byteOffset": 5106024,
      "componentType": 5126,
      "count": 37999,
      "max": [
        0.9999510049819946,
        0.9988729953765869
      ],
      "min": [
        0.001551999943330884,
        0.0035269856452941895
      ],
      "type": "VEC2"
    },
    {
      "bufferView": 0,
      "byteOffset": 2740212,
      "componentType": 5125,
      "count": 196677,
      "type": "SCALAR"
    }
  ],
  "asset": {
    "extras": {
      "author": "redmanmac (https://sketchfab.com/redmanmac)",
      "license": "SKETCHFAB Standard (https://sketchfab.com/licenses)",
      "source": "https://sketchfab.com/3d-models/fly-character-c2dab81d5c8d404da3274ee30b090810",
      "title": "Fly Character"
    },
    "generator": "Sketchfab-16.73.0",
    "version": "2.0"
  },
  "bufferViews": [
    {
      "buffer": 0,
      "byteLength": 3526920,
      "name": "floatBufferViews",
      "target": 34963
    },
    {
      "buffer": 0,
      "byteLength": 5410016,
      "byteOffset": 3526920,
      "byteStride": 8,
      "name": "floatBufferViews",
      "target": 34962
    },
    {
      "buffer": 0,
      "byteLength": 4057512,
      "byteOffset": 8936936,
      "byteStride": 12,
      "name": "floatBufferViews",
      "target": 34962
    },
    {
      "buffer": 0,
      "byteLength": 2705008,
      "byteOffset": 12994448,
      "byteStride": 16,
      "name": "floatBufferViews",
      "target": 34962
    }
  ],
  "buffers": [
    {
      "byteLength": 15699456,
      "uri": "scene.bin"
    }
  ],
  "images": [
    {
      "uri": "textures/material_0_baseColor.jpeg"
    },
    {
      "uri": "textures/material_0_metallicRoughness.png"
    },
    {
      "uri": "textures/material_0_normal.jpeg"
    }
  ],
  "materials": [
    {
      "doubleSided": true,
      "name": "material_0",
      "normalTexture": {
        "index": 2,
        "texCoord": 2
      },
      "pbrMetallicRoughness": {
        "baseColorTexture": {
          "index": 0
        },
        "metallicRoughnessTexture": {
          "index": 1,
          "texCoord": 1
        }
      }
    }
  ],
  "meshes": [
    {
      "name": "Object_0",
      "primitives": [
        {
          "attributes": {
            "NORMAL": 1,
            "POSITION": 0,
            "TANGENT": 2,
            "TEXCOORD_0": 3,
            "TEXCOORD_1": 4,
            "TEXCOORD_2": 5,
            "TEXCOORD_3": 6
          },
          "indices": 7,
          "material": 0,
          "mode": 4
        }
      ]
    },
    {
      "name": "Object_1",
      "primitives": [
        {
          "attributes": {
            "NORMAL": 9,
            "POSITION": 8,
            "TANGENT": 10,
            "TEXCOORD_0": 11,
            "TEXCOORD_1": 12,
            "TEXCOORD_2": 13,
            "TEXCOORD_3": 14
          },
          "indices": 15,
          "material": 0,
          "mode": 4
        }
      ]
    },
    {
      "name": "Object_2",
      "primitives": [
        {
          "attributes": {
            "NORMAL": 17,
            "POSITION": 16,
            "TANGENT": 18,
            "TEXCOORD_0": 19,
            "TEXCOORD_1": 20,
            "TEXCOORD_2": 21,
            "TEXCOORD_3": 22
          },
          "indices": 23,
          "material": 0,
          "mode": 4
        }
      ]
    }
  ],
  "nodes": [
    {
      "children": [
        1
      ],
      "matrix": [
        1.0,
        0.0,
        0.0,
        0.0,
        0.0,
        2.220446049250313e-16,
        -1.0,
        0.0,
        0.0,
        1.0,
        2.220446049250313e-16,
        0.0,
        0.0,
        0.0,
        0.0,
        1.0
      ],
      "name": "Sketchfab_model"
    },
    {
      "children": [
        2
      ],
      "name": "root"
    },
    {
      "children": [
        3
      ],
      "matrix": [
        1.0,
        0.0,
        0.0,
        0.0,
        0.0,
        2.220446049250313e-16,
        1.0,
        0.0,
        0.0,
        -1.0,
        2.220446049250313e-16,
        0.0,
        0.0,
        0.0,
        0.0,
        1.0
      ],
      "name": "GLTF_SceneRootNode"
    },
    {
      "children": [
        4,
        5,
        6
      ],
      "name": "_0"
    },
    {
      "mesh": 0,
      "name": "Object_4"
    },
    {
      "mesh": 1,
      "name": "Object_5"
    },
    {
      "mesh": 2,
      "name": "Object_6"
    }
  ],
  "samplers": [
    {
      "magFilter": 9729,
      "minFilter": 9987,
      "wrapS": 10497,
      "wrapT": 10497
    }
  ],
  "scene": 0,
  "scenes": [
    {
      "name": "Sketchfab_Scene",
      "nodes": [
        0
      ]
    }
  ],
  "textures": [
    {
      "sampler": 0,
      "source": 0
    },
    {
      "sampler": 0,
      "source": 1
    },
    {
      "sampler": 0,
      "source": 2
    }
  ]
}
