{
  "accessors": [
    {
      "bufferView": 2,
      "componentType": 5126,
      "count": 1232,
      "max": [
        0.800000011920929,
        0.2565731406211853,
        2.219233512878418
      ],
      "min": [
        -1.0849963426589966,
        -0.33673617243766785,
        0.0
      ],
      "type": "VEC3"
    },
    {
      "bufferView": 2,
      "byteOffset": 14784,
      "componentType": 5126,
      "count": 1232,
      "max": [
        1.0,
        1.0,
        1.0
      ],
      "min": [
        -1.0,
        -1.0,
        -1.0
      ],
      "type": "VEC3"
    },
    {
      "bufferView": 1,
      "componentType": 5126,
      "count": 1232,
      "max": [
        0.994543731212616,
        0.9737588167190552
      ],
      "min": [
        0.0,
        0.0
      ],
      "type": "VEC2"
    },
    {
      "bufferView": 1,
      "byteOffset": 9856,
      "componentType": 5126,
      "count": 1232,
      "max": [
        0.994543731212616,
        0.9737588167190552
      ],
      "min": [
        0.0,
        0.0
      ],
      "type": "VEC2"
    },
    {
      "bufferView": 0,
      "componentType": 5125,
      "count": 3099,
      "type": "SCALAR"
    },
    {
      "bufferView": 2,
      "byteOffset": 29568,
      "componentType": 5126,
      "count": 2458,
      "max": [
        0.7800231575965881,
        0.013702746480703354,
        2.2217299938201904
      ],
      "min": [
        -1.0302852392196655,
        -0.3073178827762604,
        -0.0002486705780029297
      ],
      "type": "VEC3"
    },
    {
      "bufferView": 2,
      "byteOffset": 59064,
      "componentType": 5126,
      "count": 2458,
      "max": [
        1.0,
        1.0,
        1.0
      ],
      "min": [
        -1.0,
        -1.0,
        -1.0
      ],
      "type": "VEC3"
    },
    {
      "bufferView": 1,
      "byteOffset": 19712,
      "componentType": 5126,
      "count": 2458,
      "max": [
        0.9992841482162476,
        0.9741811156272888
      ],
      "min": [
        0.2769385874271393,
        2.6702880859375e-05
      ],
      "type": "VEC2"
    },
    {
      "bufferView": 0,
      "byteOffset": 12396,
      "componentType": 5125,
      "count": 7536,
      "type": "SCALAR"
    },
    {
      "bufferView": 2,
      "byteOffset": 88560,
      "componentType": 5126,
      "count": 374,
      "max": [
        0.7800189256668091,
        0.23652490973472595,
        2.1993067264556885
      ],
      "min": [
        -0.7800496816635132,
        -0.29496148228645325,
        0.09994375705718994
      ],
      "type": "VEC3"
    },
    {
      "bufferView": 2,
      "byteOffset": 93048,
      "componentType": 5126,
      "count": 374,
      "max": [
        1.0,
        1.0,
        1.0
      ],
      "min": [
        -1.0,
        -1.0,
        -1.0
      ],
      "type": "VEC3"
    },
    {
      "bufferView": 3,
      "componentType": 5126,
      "count": 374,
      "max": [
        1.0,
        1.0,
        1.0,
        1.0
      ],
      "min": [
        -1.0,
        -1.0,
        -1.0,
        1.0
      ],
      "type": "VEC4"
    },
    {
      "bufferView": 1,
      "byteOffset": 39376,
      "componentType": 5126,
      "count": 374,
      "max": [
        0.7689700126647949,
        0.7045097351074219
      ],
      "min": [
        0.27821817994117737,
        0.015028220601379871
      ],
      "type": "VEC2"
    },
    {
      "bufferView": 1,
      "byteOffset": 42368,
      "componentType": 5126,
      "count": 374,
      "max": [
        0.7689700126647949,
        0.7045097351074219
      ],
      "min": [
        0.27821817994117737,
        0.015028220601379871
      ],
      "type": "VEC2"
    },
    {
      "bufferView": 0,
      "byteOffset": 42540,
      "componentType": 5125,
      "count": 756,
      "type": "SCALAR"
    },
    {
      "bufferView": 2,
      "byteOffset": 97536,
      "componentType": 5126,
      "count": 332,
      "max": [
        -0.009563565254211426,
        0.033142149448394775,
        1.0451419353485107
      ],
      "min": [
        -0.7870696187019348,
        -0.002522975206375122,
        -0.8244531154632568
      ],
      "type": "VEC3"
    },
    {
      "bufferView": 2,
      "byteOffset": 101520,
      "componentType": 5126,
      "count": 332,
      "max": [
        1.0,
        1.0,
        1.0
      ],
      "min": [
        -1.0,
        -1.0,
        -1.0
      ],
      "type": "VEC3"
    },
    {
      "bufferView": 3,
      "byteOffset": 5984,
      "componentType": 5126,
      "count": 332,
      "max": [
        1.0,
        1.0,
        0.9890759587287903,
        1.0
      ],
      "min": [
        -1.0,
        -1.0,
        -1.0,
        1.0
      ],
      "type": "VEC4"
    },
    {
      "bufferView": 1,
      "byteOffset": 45360,
      "componentType": 5126,
      "count": 332,
      "max": [
        0.7700539827346802,
        0.6195707321166992
      ],
      "min": [
        0.27821865677833557,
        0.30018913745880127
      ],
      "type": "VEC2"
    },
    {
      "bufferView": 1,
      "byteOffset": 48016,
      "componentType": 5126,
      "count": 332,
      "max": [
        0.7700539827346802,
        0.6195707321166992
      ],
      "min": [
        0.27821865677833557,
        0.30018913745880127
      ],
      "type": "VEC2"
    },
    {
      "bufferView": 0,
      "byteOffset": 45564,
      "componentType": 5125,
      "count": 816,
      "type": "SCALAR"
    },
    {
      "bufferView": 2,
      "byteOffset": 105504,
      "componentType": 5126,
      "count": 872,
      "max": [
        0.005390048027038574,
        0.06371594965457916,
        1.0718865394592285
      ],
      "min": [
        -0.8020307421684265,
        -0.017483502626419067,
        -1.1039716005325317
      ],
      "type": "VEC3"
    },
    {
      "bufferView": 2,
      "byteOffset": 115968,
      "componentType": 5126,
      "count": 872,
      "max": [
        1.0,
        1.0,
        1.0
      ],
      "min": [
        -1.0,
        -1.0,
        -1.0
      ],
      "type": "VEC3"
    },
    {
      "bufferView": 1,
      "byteOffset": 50672,
      "componentType": 5126,
      "count": 872,
      "max": [
        1.0,
        0.9761952757835388
      ],
      "min": [
        0.2769385874271393,
        2.6702880859375e-05
      ],
      "type": "VEC2"
    },
    {
      "bufferView": 0,
      "byteOffset": 48828,
      "componentType": 5125,
      "count": 2757,
      "type": "SCALAR"
    },
    {
      "bufferView": 2,
      "byteOffset": 126432,
      "componentType": 5126,
      "count": 296,
      "max": [
        -0.02865314483642578,
        0.02522963285446167,
        1.0484288930892944
      ],
      "min": [
        -0.7670326828956604,
        0.021229639649391174,
        1.0393463373184204
      ],
      "type": "VEC3"
    },
    {
      "bufferView": 2,
      "byteOffset": 129984,
      "componentType": 5126,
      "count": 296,
      "max": [
        1.0,
        1.0,
        1.0
      ],
      "min": [
        -1.0,
        -1.0,
        -1.0
      ],
      "type": "VEC3"
    },
    {
      "bufferView": 3,
      "byteOffset": 11296,
      "componentType": 5126,
      "count": 296,
      "max": [
        0.5064883828163147,
        0.9992645978927612,
        0.9855894446372986,
        1.0
      ],
      "min": [
        -0.5169674754142761,
        -1.0,
        -0.5287430286407471,
        1.0
      ],
      "type": "VEC4"
    },
    {
      "bufferView": 1,
      "byteOffset": 57648,
      "componentType": 5126,
      "count": 296,
      "max": [
        0.6663461923599243,
        0.3256600499153137
      ],
      "min": [
        0.6519548296928406,
        0.3048415184020996
      ],
      "type": "VEC2"
    },
    {
      "bufferView": 1,
      "byteOffset": 60016,
      "componentType": 5126,
      "count": 296,
      "max": [
        0.6663461923599243,
        0.3256600499153137
      ],
      "min": [
        0.6519548296928406,
        0.3048415184020996
      ],
      "type": "VEC2"
    },
    {
      "bufferView": 0,
      "byteOffset": 59856,
      "componentType": 5125,
      "count": 1044,
      "type": "SCALAR"
    },
    {
      "bufferView": 2,
      "byteOffset": 133536,
      "componentType": 5126,
      "count": 15,
      "max": [
        -0.009563565254211426,
        0.06280525028705597,
        0.7922084331512451
      ],
      "min": [
        -0.7870696187019348,
        -0.002522975206375122,
        -1.1018587350845337
      ],
      "type": "VEC3"
    },
    {
      "bufferView": 2,
      "byteOffset": 133716,
      "componentType": 5126,
      "count": 15,
      "max": [
        1.0,
        -9.607083484297618e-08,
        0.0
      ],
      "min": [
        0.0,
        -1.0,
        0.0
      ],
      "type": "VEC3"
    },
    {
      "bufferView": 1,
      "byteOffset": 62384,
      "componentType": 5126,
      "count": 15,
      "max": [
        0.7463944554328918,
        0.6173276305198669
      ],
      "min": [
        0.40035372972488403,
        0.3091551661491394
      ],
      "type": "VEC2"
    },
    {
      "bufferView": 1,
      "byteOffset": 62504,
      "componentType": 5126,
      "count": 15,
      "max": [
        0.7463944554328918,
        0.6173276305198669
      ],
      "min": [
        0.40035372972488403,
        0.3091551661491394
      ],
      "type": "VEC2"
    },
    {
      "bufferView": 0,
      "byteOffset": 64032,
      "componentType": 5125,
      "count": 21,
      "type": "SCALAR"
    },
    {
      "bufferView": 2,
      "byteOffset": 133896,
      "componentType": 5126,
      "count": 56,
      "max": [
        -0.009563565254211426,
        0.01749996840953827,
        1.0718865394592285
      ],
      "min": [
        -0.7870696187019348,
        -0.007539898157119751,
        -1.0940032005310059
      ],
      "type": "VEC3"
    },
    {
      "bufferView": 2,
      "byteOffset": 134568,
      "componentType": 5126,
      "count": 56,
      "max": [
        1.0,
        1.0,
        1.0
      ],
      "min": [
        -1.0,
        -1.0,
        -1.0
      ],
      "type": "VEC3"
    },
    {
      "bufferView": 1,
      "byteOffset": 62624,
      "componentType": 5126,
      "count": 56,
      "max": [
        0.9892013669013977,
        0.9356706142425537
      ],
      "min": [
        0.27740636467933655,
        0.23647385835647583
      ],
      "type": "VEC2"
    },
    {
      "bufferView": 1,
      "byteOffset": 63072,
      "componentType": 5126,
      "count": 56,
      "max": [
        0.9892013669013977,
        0.9356706142425537
      ],
      "min": [
        0.27740636467933655,
        0.23647385835647583
      ],
      "type": "VEC2"
    },
    {
      "bufferView": 0,
      "byteOffset": 64116,
      "componentType": 5125,
      "count": 84,
      "type": "SCALAR"
    },
    {
      "bufferView": 2,
      "byteOffset": 135240,
      "componentType": 5126,
      "count": 499,
      "max": [
        0.017499983310699463,
        0.060224100947380066,
        1.045142650604248
      ],
      "min": [
        -0.7899502515792847,
        -0.0025229454040527344,
        -0.8244531750679016
      ],
      "type": "VEC3"
    },
    {
      "bufferView": 2,
      "byteOffset": 141228,
      "componentType": 5126,
      "count": 499,
      "max": [
        1.0,
        1.0,
        1.0
      ],
      "min": [
        -1.0,
        -1.0,
        -1.0
      ],
      "type": "VEC3"
    },
    {
      "bufferView": 3,
      "byteOffset": 16032,
      "componentType": 5126,
      "count": 499,
      "max": [
        1.0,
        1.0,
        1.0,
        1.0
      ],
      "min": [
        -1.0,
        -1.0,
        -1.0,
        1.0
      ],
      "type": "VEC4"
    },
    {
      "bufferView": 1,
      "byteOffset": 63520,
      "componentType": 5126,
      "count": 499,
      "max": [
        0.7697105407714844,
        0.6188585758209229
      ],
      "min": [
        0.278176873922348,
        0.04053139686584473
      ],
      "type": "VEC2"
    },
    {
      "bufferView": 1,
      "byteOffset": 67512,
      "componentType": 5126,
      "count": 499,
      "max": [
        0.7697105407714844,
        0.6188585758209229
      ],
      "min": [
        0.278176873922348,
        0.04053139686584473
      ],
      "type": "VEC2"
    },
    {
      "bufferView": 0,
      "byteOffset": 64452,
      "componentType": 5125,
      "count": 1308,
      "type": "SCALAR"
    },
    {
      "bufferView": 2,
      "byteOffset": 147216,
      "componentType": 5126,
      "count": 1430,
      "max": [
        0.017499983310699463,
        0.08121269941329956,
        1.0806424617767334
      ],
      "min": [
        -0.7899502515792847,
        -0.01750004291534424,
        -1.1039716005325317
      ],
      "type": "VEC3"
    },
    {
      "bufferView": 2,
      "byteOffset": 164376,
      "componentType": 5126,
      "count": 1430,
      "max": [
        1.0,
        1.0,
        1.0
      ],
      "min": [
        -1.0,
        -1.0,
        -1.0
      ],
      "type": "VEC3"
    },
    {
      "bufferView": 1,
      "byteOffset": 71504,
      "componentType": 5126,
      "count": 1430,
      "max": [
        0.9991926550865173,
        0.985058605670929
      ],
      "min": [
        0.22909191250801086,
        0.0
      ],
      "type": "VEC2"
    },
    {
      "bufferView": 0,
      "byteOffset": 69684,
      "componentType": 5125,
      "count": 4554,
      "type": "SCALAR"
    },
    {
      "bufferView": 2,
      "byteOffset": 181536,
      "componentType": 5126,
      "count": 296,
      "max": [
        -0.06203639507293701,
        0.06288084387779236,
        1.0484293699264526
      ],
      "min": [
        -0.7154953479766846,
        0.05888085067272186,
        1.0393468141555786
      ],
      "type": "VEC3"
    },
    {
      "bufferView": 2,
      "byteOffset": 185088,
      "componentType": 5126,
      "count": 296,
      "max": [
        1.0,
        1.0,
        1.0
      ],
      "min": [
        -1.0,
        -1.0,
        -1.0
      ],
      "type": "VEC3"
    },
    {
      "bufferView": 3,
      "byteOffset": 24016,
      "componentType": 5126,
      "count": 296,
      "max": [
        0.5178970098495483,
        1.0,
        0.9735187888145447,
        1.0
      ],
      "min": [
        -0.9989659786224365,
        -1.0,
        -0.5269189476966858,
        1.0
      ],
      "type": "VEC4"
    },
    {
      "bufferView": 1,
      "byteOffset": 82944,
      "componentType": 5126,
      "count": 296,
      "max": [
        0.6710255742073059,
        0.32567715644836426
      ],
      "min": [
        0.6568332314491272,
        0.30484139919281006
      ],
      "type": "VEC2"
    },
    {
      "bufferView": 1,
      "byteOffset": 85312,
      "componentType": 5126,
      "count": 296,
      "max": [
        0.6710255742073059,
        0.32567715644836426
      ],
      "min": [
        0.6568332314491272,
        0.30484139919281006
      ],
      "type": "VEC2"
    },
    {
      "bufferView": 0,
      "byteOffset": 87900,
      "componentType": 5125,
      "count": 1044,
      "type": "SCALAR"
    },
    {
      "bufferView": 2,
      "byteOffset": 188640,
      "componentType": 5126,
      "count": 56,
      "max": [
        0.002546370029449463,
        0.01750001311302185,
        1.0718865394592285
      ],
      "min": [
        -0.7749890685081482,
        -0.007531970739364624,
        -1.0940032005310059
      ],
      "type": "VEC3"
    },
    {
      "bufferView": 2,
      "byteOffset": 189312,
      "componentType": 5126,
      "count": 56,
      "max": [
        1.0,
        1.0,
        1.0
      ],
      "min": [
        -1.0,
        -1.0,
        -1.0
      ],
      "type": "VEC3"
    },
    {
      "bufferView": 1,
      "byteOffset": 87680,
      "componentType": 5126,
      "count": 56,
      "max": [
        0.9892257452011108,
        0.9445257186889648
      ],
      "min": [
        0.2834388017654419,
        0.0
      ],
      "type": "VEC2"
    },
    {
      "bufferView": 1,
      "byteOffset": 88128,
      "componentType": 5126,
      "count": 56,
      "max": [
        0.9892257452011108,
        0.9445257186889648
      ],
      "min": [
        0.2834388017654419,
        0.0
      ],
      "type": "VEC2"
    },
    {
      "bufferView": 0,
      "byteOffset": 92076,
      "componentType": 5125,
      "count": 84,
      "type": "SCALAR"
    },
    {
      "bufferView": 2,
      "byteOffset": 189984,
      "componentType": 5126,
      "count": 52,
      "max": [
        0.2574999928474426,
        -6.505846977233887e-05,
        0.07485706359148026
      ],
      "min": [
        -0.2574999928474426,
        -0.45465201139450073,
        -0.0748511552810669
      ],
      "type": "VEC3"
    },
    {
      "bufferView": 2,
      "byteOffset": 190608,
      "componentType": 5126,
      "count": 52,
      "max": [
        1.0,
        1.0,
        1.0
      ],
      "min": [
        -1.0,
        -1.0,
        -1.0
      ],
      "type": "VEC3"
    },
    {
      "bufferView": 1,
      "byteOffset": 88576,
      "componentType": 5126,
      "count": 52,
      "max": [
        0.9645869731903076,
        0.967410683631897
      ],
      "min": [
        0.1307041347026825,
        0.0
      ],
      "type": "VEC2"
    },
    {
      "bufferView": 1,
      "byteOffset": 88992,
      "componentType": 5126,
      "count": 52,
      "max": [
        0.9645869731903076,
        0.967410683631897
      ],
      "min": [
        0.1307041347026825,
        0.0
      ],
      "type": "VEC2"
    },
    {
      "bufferView": 0,
      "byteOffset": 92412,
      "componentType": 5125,
      "count": 120,
      "type": "SCALAR"
    },
    {
      "bufferView": 2,
      "byteOffset": 191232,
      "componentType": 5126,
      "count": 4,
      "max": [
        0.23746123909950256,
        -0.020034492015838623,
        -0.05489819124341011
      ],
      "min": [
        -0.23746120929718018,
        -0.45465201139450073,
        -0.054898202419281006
      ],
      "type": "VEC3"
    },
    {
      "bufferView": 2,
      "byteOffset": 191280,
      "componentType": 5126,
      "count": 4,
      "max": [
        -1.8048046612761937e-08,
        1.714284536546984e-08,
        1.0
      ],
      "min": [
        -1.8048046612761937e-08,
        1.714284536546984e-08,
        1.0
      ],
      "type": "VEC3"
    },
    {
      "bufferView": 3,
      "byteOffset": 28752,
      "componentType": 5126,
      "count": 4,
      "max": [
        1.5469747850998492e-16,
        1.0,
        -1.714284536546984e-08,
        1.0
      ],
      "min": [
        -1.546973726308665e-16,
        1.0,
        -1.714284536546984e-08,
        1.0
      ],
      "type": "VEC4"
    },
    {
      "bufferView": 1,
      "byteOffset": 89408,
      "componentType": 5126,
      "count": 4,
      "max": [
        0.06535208225250244,
        0.9613844156265259
      ],
      "min": [
        0.0,
        0.8899718523025513
      ],
      "type": "VEC2"
    },
    {
      "bufferView": 1,
      "byteOffset": 89440,
      "componentType": 5126,
      "count": 4,
      "max": [
        0.06535208225250244,
        0.9613844156265259
      ],
      "min": [
        0.0,
        0.8899718523025513
      ],
      "type": "VEC2"
    },
    {
      "bufferView": 0,
      "byteOffset": 92892,
      "componentType": 5125,
      "count": 6,
      "type": "SCALAR"
    },
    {
      "bufferView": 2,
      "byteOffset": 191328,
      "componentType": 5126,
      "count": 92,
      "max": [
        0.2674957513809204,
        -0.45465201139450073,
        0.08488095551729202
      ],
      "min": [
        -0.2674957513809204,
        -0.474606454372406,
        -0.08487515896558762
      ],
      "type": "VEC3"
    },
    {
      "bufferView": 2,
      "byteOffset": 192432,
      "componentType": 5126,
      "count": 92,
      "max": [
        1.0,
        1.0,
        1.0
      ],
      "min": [
        -1.0,
        -1.0,
        -1.0
      ],
      "type": "VEC3"
    },
    {
      "bufferView": 3,
      "byteOffset": 28816,
      "componentType": 5126,
      "count": 92,
      "max": [
        0.0,
        1.0,
        3.073932930419687e-06,
        1.0
      ],
      "min": [
        0.0,
        0.0,
        -1.0,
        1.0
      ],
      "type": "VEC4"
    },
    {
      "bufferView": 1,
      "byteOffset": 89472,
      "componentType": 5126,
      "count": 92,
      "max": [
        0.9677228331565857,
        0.9656084179878235
      ],
      "min": [
        0.6054787039756775,
        0.2834409475326538
      ],
      "type": "VEC2"
    },
    {
      "bufferView": 1,
      "byteOffset": 90208,
      "componentType": 5126,
      "count": 92,
      "max": [
        0.9677228331565857,
        0.9656084179878235
      ],
      "min": [
        0.6054787039756775,
        0.2834409475326538
      ],
      "type": "VEC2"
    },
    {
      "bufferView": 0,
      "byteOffset": 92916,
      "componentType": 5125,
      "count": 270,
      "type": "SCALAR"
    },
    {
      "bufferView": 2,
      "byteOffset": 193536,
      "componentType": 5126,
      "count": 52,
      "max": [
        0.2574999928474426,
        -6.505846977233887e-05,
        0.07485708594322205
      ],
      "min": [
        -0.2574999928474426,
        -0.45465201139450073,
        -0.07485111802816391
      ],
      "type": "VEC3"
    },
    {
      "bufferView": 2,
      "byteOffset": 194160,
      "componentType": 5126,
      "count": 52,
      "max": [
        1.0,
        1.0,
        1.0
      ],
      "min": [
        -1.0,
        -1.0,
        -1.0
      ],
      "type": "VEC3"
    },
    {
      "bufferView": 1,
      "byteOffset": 90944,
      "componentType": 5126,
      "count": 52,
      "max": [
        0.9645869135856628,
        0.9658948183059692
      ],
      "min": [
        0.1576496958732605,
        0.15487784147262573
      ],
      "type": "VEC2"
    },
    {
      "bufferView": 1,
      "byteOffset": 91360,
      "componentType": 5126,
      "count": 52,
      "max": [
        0.9645869135856628,
        0.9658948183059692
      ],
      "min": [
        0.1576496958732605,
        0.15487784147262573
      ],
      "type": "VEC2"
    },
    {
      "bufferView": 0,
      "byteOffset": 93996,
      "componentType": 5125,
      "count": 120,
      "type": "SCALAR"
    },
    {
      "bufferView": 2,
      "byteOffset": 194784,
      "componentType": 5126,
      "count": 4,
      "max": [
        0.23746123909950256,
        -0.020034462213516235,
        -0.05489810183644295
      ],
      "min": [
        -0.23746120929718018,
        -0.45465195178985596,
        -0.05489814281463623
      ],
      "type": "VEC3"
    },
    {
      "bufferView": 2,
      "byteOffset": 194832,
      "componentType": 5126,
      "count": 4,
      "max": [
        0.0,
        9.428566016822515e-08,
        1.0
      ],
      "min": [
        0.0,
        9.428566016822515e-08,
        1.0
      ],
      "type": "VEC3"
    },
    {
      "bufferView": 3,
      "byteOffset": 30288,
      "componentType": 5126,
      "count": 4,
      "max": [
        0.0,
        1.0,
        -9.428566016822515e-08,
        1.0
      ],
      "min": [
        0.0,
        1.0,
        -9.428566016822515e-08,
        1.0
      ],
      "type": "VEC4"
    },
    {
      "bufferView": 1,
      "byteOffset": 91776,
      "componentType": 5126,
      "count": 4,
      "max": [
        0.1307041347026825,
        0.9613844156265259
      ],
      "min": [
        0.06535208225250244,
        0.8899718523025513
      ],
      "type": "VEC2"
    },
    {
      "bufferView": 1,
      "byteOffset": 91808,
      "componentType": 5126,
      "count": 4,
      "max": [
        0.1307041347026825,
        0.9613844156265259
      ],
      "min": [
        0.06535208225250244,
        0.8899718523025513
      ],
      "type": "VEC2"
    },
    {
      "bufferView": 0,
      "byteOffset": 94476,
      "componentType": 5125,
      "count": 6,
      "type": "SCALAR"
    },
    {
      "bufferView": 2,
      "byteOffset": 194880,
      "componentType": 5126,
      "count": 92,
      "max": [
        0.2674957513809204,
        -0.45465195178985596,
        0.08488095551729202
      ],
      "min": [
        -0.2674957513809204,
        -0.474606454372406,
        -0.08487512916326523
      ],
      "type": "VEC3"
    },
    {
      "bufferView": 2,
      "byteOffset": 195984,
      "componentType": 5126,
      "count": 92,
      "max": [
        1.0,
        1.0,
        1.0
      ],
      "min": [
        -1.0,
        -1.0,
        -1.0
      ],
      "type": "VEC3"
    },
    {
      "bufferView": 3,
      "byteOffset": 30352,
      "componentType": 5126,
      "count": 92,
      "max": [
        7.193938245109166e-07,
        1.0,
        6.9454604272323195e-06,
        1.0
      ],
      "min": [
        -3.254359881861184e-20,
        -1.0,
        -1.0,
        1.0
      ],
      "type": "VEC4"
    },
    {
      "bufferView": 1,
      "byteOffset": 91840,
      "componentType": 5126,
      "count": 92,
      "max": [
        0.9677652716636658,
        0.8904996514320374
      ],
      "min": [
        0.7133710384368896,
        0.2323167622089386
      ],
      "type": "VEC2"
    },
    {
      "bufferView": 1,
      "byteOffset": 92576,
      "componentType": 5126,
      "count": 92,
      "max": [
        0.9677652716636658,
        0.8904996514320374
      ],
      "min": [
        0.7133710384368896,
        0.2323167622089386
      ],
      "type": "VEC2"
    },
    {
      "bufferView": 0,
      "byteOffset": 94500,
      "componentType": 5125,
      "count": 270,
      "type": "SCALAR"
    }
  ],
  "asset": {
    "extras": {
      "author": "M4nT1Core (https://sketchfab.com/M4nt1core)",
      "license": "CC-BY-4.0 (http://creativecommons.org/licenses/by/4.0/)",
      "source": "https://sketchfab.com/3d-models/modern-wooden-wardrobe-aff452c30e724283ae2c4f17297e0ef7",
      "title": "Modern Wooden Wardrobe"
    },
    "generator": "Sketchfab-15.27.0",
    "version": "2.0"
  },
  "bufferViews": [
    {
      "buffer": 0,
      "byteLength": 95580,
      "name": "floatBufferViews",
      "target": 34963
    },
    {
      "buffer": 0,
      "byteLength": 93312,
      "byteOffset": 95580,
      "byteStride": 8,
      "name": "floatBufferViews",
      "target": 34962
    },
    {
      "buffer": 0,
      "byteLength": 197088,
      "byteOffset": 188892,
      "byteStride": 12,
      "name": "floatBufferViews",
      "target": 34962
    },
    {
      "buffer": 0,
      "byteLength": 31824,
      "byteOffset": 385980,
      "byteStride": 16,
      "name": "floatBufferViews",
      "target": 34962
    }
  ],
  "buffers": [
    {
      "byteLength": 417804,
      "uri": "scene.bin"
    }
  ],
  "images": [
    {
      "uri": "textures/Wardrobe_Wood_Material_baseColor.png"
    },
    {
      "uri": "textures/Wardrobe_Metal_Material_baseColor.png"
    },
    {
      "uri": "textures/Wardrobe_Metal_Material_metallicRoughness.png"
    },
    {
      "uri": "textures/Wardrobe_White_Plastic_Material_baseColor.png"
    },
    {
      "uri": "textures/Wardrobe_White_Plastic_Material_metallicRoughness.png"
    },
    {
      "uri": "textures/Wardrobe_White_Plastic_Material_normal.png"
    },
    {
      "uri": "textures/Wardrobe_Black_Plastic_Material_baseColor.png"
    },
    {
      "uri": "textures/Wardrobe_Black_Plastic_Material_normal.png"
    },
    {
      "uri": "textures/Wardrobe_Mirror_Material_baseColor.png"
    },
    {
      "uri": "textures/Wardrobe_Mirror_Material_metallicRoughness.png"
    }
  ],
  "materials": [
    {
      "doubleSided": true,
      "name": "Wardrobe_Wood_Material",
      "pbrMetallicRoughness": {
        "baseColorTexture": {
          "index": 0
        },
        "metallicFactor": 0.0,
        "roughnessFactor": 0.8211145618000169
      }
    },
    {
      "doubleSided": true,
      "name": "Wardrobe_Metal_Material",
      "pbrMetallicRoughness": {
        "baseColorTexture": {
          "index": 1
        },
        "metallicRoughnessTexture": {
          "index": 2
        }
      }
    },
    {
      "doubleSided": true,
      "name": "Wardrobe_White_Plastic_Material",
      "normalTexture": {
        "index": 5
      },
      "pbrMetallicRoughness": {
        "baseColorTexture": {
          "index": 3
        },
        "metallicFactor": 0.0,
        "metallicRoughnessTexture": {
          "index": 4
        }
      }
    },
    {
      "doubleSided": true,
      "name": "Wardrobe_Black_Plastic_Material",
      "normalTexture": {
        "index": 7
      },
      "pbrMetallicRoughness": {
        "baseColorTexture": {
          "index": 6
        },
        "metallicFactor": 0.0,
        "roughnessFactor": 0.8211145618000169
      }
    },
    {
      "doubleSided": true,
      "name": "Wardrobe_Mirror_Material",
      "pbrMetallicRoughness": {
        "baseColorTexture": {
          "index": 8
        },
        "metallicRoughnessTexture": {
          "index": 9
        }
      }
    }
  ],
  "meshes": [
    {
      "name": "Wardrobe_Wardrobe Wood_Material_0",
      "primitives": [
        {
          "attributes": {
            "NORMAL": 1,
            "POSITION": 0,
            "TEXCOORD_0": 2,
            "TEXCOORD_1": 3
          },
          "indices": 4,
          "material": 0,
          "mode": 4
        }
      ]
    },
    {
      "name": "Wardrobe_Wardrobe Metal_Material_0",
      "primitives": [
        {
          "attributes": {
            "NORMAL": 6,
            "POSITION": 5,
            "TEXCOORD_0": 7
          },
          "indices": 8,
          "material": 1,
          "mode": 4
        }
      ]
    },
    {
      "name": "Wardrobe_Wardrobe White Plastic_Material_0",
      "primitives": [
        {
          "attributes": {
            "NORMAL": 10,
            "POSITION": 9,
            "TANGENT": 11,
            "TEXCOORD_0": 12,
            "TEXCOORD_1": 13
          },
          "indices": 14,
          "material": 2,
          "mode": 4
        }
      ]
    },
    {
      "name": "WardrobeDoor1_Wardrobe Black Plastic_Material_0",
      "primitives": [
        {
          "attributes": {
            "NORMAL": 16,
            "POSITION": 15,
            "TANGENT": 17,
            "TEXCOORD_0": 18,
            "TEXCOORD_1": 19
          },
          "indices": 20,
          "material": 3,
          "mode": 4
        }
      ]
    },
    {
      "name": "WardrobeDoor1_Wardrobe Metal_Material_0",
      "primitives": [
        {
          "attributes": {
            "NORMAL": 22,
            "POSITION": 21,
            "TEXCOORD_0": 23
          },
          "indices": 24,
          "material": 1,
          "mode": 4
        }
      ]
    },
    {
      "name": "WardrobeDoor1_Wardrobe White Plastic_Material_0",
      "primitives": [
        {
          "attributes": {
            "NORMAL": 26,
            "POSITION": 25,
            "TANGENT": 27,
            "TEXCOORD_0": 28,
            "TEXCOORD_1": 29
          },
          "indices": 30,
          "material": 2,
          "mode": 4
        }
      ]
    },
    {
      "name": "WardrobeDoor1_Wardrobe Mirror_Material_0",
      "primitives": [
        {
          "attributes": {
            "NORMAL": 32,
            "POSITION": 31,
            "TEXCOORD_0": 33,
            "TEXCOORD_1": 34
          },
          "indices": 35,
          "material": 4,
          "mode": 4
        }
      ]
    },
    {
      "name": "WardrobeDoor1_Wardrobe Wood_Material_0",
      "primitives": [
        {
          "attributes": {
            "NORMAL": 37,
            "POSITION": 36,
            "TEXCOORD_0": 38,
            "TEXCOORD_1": 39
          },
          "indices": 40,
          "material": 0,
          "mode": 4
        }
      ]
    },
    {
      "name": "WardrobeDoor2_Wardrobe Black Plastic_Material_0",
      "primitives": [
        {
          "attributes": {
            "NORMAL": 42,
            "POSITION": 41,
            "TANGENT": 43,
            "TEXCOORD_0": 44,
            "TEXCOORD_1": 45
          },
          "indices": 46,
          "material": 3,
          "mode": 4
        }
      ]
    },
    {
      "name": "WardrobeDoor2_Wardrobe Metal_Material_0",
      "primitives": [
        {
          "attributes": {
            "NORMAL": 48,
            "POSITION": 47,
            "TEXCOORD_0": 49
          },
          "indices": 50,
          "material": 1,
          "mode": 4
        }
      ]
    },
    {
      "name": "WardrobeDoor2_Wardrobe White Plastic_Material_0",
      "primitives": [
        {
          "attributes": {
            "NORMAL": 52,
            "POSITION": 51,
            "TANGENT": 53,
            "TEXCOORD_0": 54,
            "TEXCOORD_1": 55
          },
          "indices": 56,
          "material": 2,
          "mode": 4
        }
      ]
    },
    {
      "name": "WardrobeDoor2_Wardrobe Wood_Material_0",
      "primitives": [
        {
          "attributes": {
            "NORMAL": 58,
            "POSITION": 57,
            "TEXCOORD_0": 59,
            "TEXCOORD_1": 60
          },
          "indices": 61,
          "material": 0,
          "mode": 4
        }
      ]
    },
    {
      "name": "WardrobeDrawer2_Wardrobe Wood_Material_0",
      "primitives": [
        {
          "attributes": {
            "NORMAL": 63,
            "POSITION": 62,
            "TEXCOORD_0": 64,
            "TEXCOORD_1": 65
          },
          "indices": 66,
          "material": 0,
          "mode": 4
        }
      ]
    },
    {
      "name": "WardrobeDrawer2_Wardrobe White Plastic_Material_0",
      "primitives": [
        {
          "attributes": {
            "NORMAL": 68,
            "POSITION": 67,
            "TANGENT": 69,
            "TEXCOORD_0": 70,
            "TEXCOORD_1": 71
          },
          "indices": 72,
          "material": 2,
          "mode": 4
        }
      ]
    },
    {
      "name": "WardrobeDrawer2_Wardrobe Black Plastic_Material_0",
      "primitives": [
        {
          "attributes": {
            "NORMAL": 74,
            "POSITION": 73,
            "TANGENT": 75,
            "TEXCOORD_0": 76,
            "TEXCOORD_1": 77
          },
          "indices": 78,
          "material": 3,
          "mode": 4
        }
      ]
    },
    {
      "name": "WardrobeDrawer1_Wardrobe Wood_Material_0",
      "primitives": [
        {
          "attributes": {
            "NORMAL": 80,
            "POSITION": 79,
            "TEXCOORD_0": 81,
            "TEXCOORD_1": 82
          },
          "indices": 83,
          "material": 0,
          "mode": 4
        }
      ]
    },
    {
      "name": "WardrobeDrawer1_Wardrobe White Plastic_Material_0",
      "primitives": [
        {
          "attributes": {
            "NORMAL": 85,
            "POSITION": 84,
            "TANGENT": 86,
            "TEXCOORD_0": 87,
            "TEXCOORD_1": 88
          },
          "indices": 89,
          "material": 2,
          "mode": 4
        }
      ]
    },
    {
      "name": "WardrobeDrawer1_Wardrobe Black Plastic_Material_0",
      "primitives": [
        {
          "attributes": {
            "NORMAL": 91,
            "POSITION": 90,
            "TANGENT": 92,
            "TEXCOORD_0": 93,
            "TEXCOORD_1": 94
          },
          "indices": 95,
          "material": 3,
          "mode": 4
        }
      ]
    }
  ],
  "nodes": [
    {
      "children": [
        1
      ],
      "matrix": [
        1.0,
        0.0,
        0.0,
        0.0,
        0.0,
        2.220446049250313e-16,
        -1.0,
        0.0,
        0.0,
        1.0,
        2.220446049250313e-16,
        0.0,
        0.0,
        0.0,
        0.0,
        1.0
      ],
      "name": "Sketchfab_model"
    },
    {
      "children": [
        2
      ],
      "matrix": [
        0.009999999776482582,
        0.0,
        0.0,
        0.0,
        0.0,
        0.0,
        0.009999999776482582,
        0.0,
        0.0,
        -0.009999999776482582,
        0.0,
        0.0,
        0.0,
        0.0,
        0.0,
        1.0
      ],
      "name": "Wardrobe.fbx"
    },
    {
      "children": [
        3,
        7,
        13,
        18,
        22
      ],
      "name": "RootNode"
    },
    {
      "children": [
        4,
        5,
        6
      ],
      "matrix": [
        100.0,
        0.0,
        0.0,
        0.0,
        0.0,
        -1.629206793918314e-05,
        -99.99999999999868,
        0.0,
        0.0,
        99.99999999999868,
        -1.629206793918314e-05,
        0.0,
        3.691798701765947e-05,
        6.268237484619021e-06,
        2.172151107515674e-05,
        1.0
      ],
      "name": "Wardrobe"
    },
    {
      "mesh": 0,
      "name": "Wardrobe_Wardrobe Wood_Material_0"
    },
    {
      "mesh": 1,
      "name": "Wardrobe_Wardrobe Metal_Material_0"
    },
    {
      "mesh": 2,
      "name": "Wardrobe_Wardrobe White Plastic_Material_0"
    },
    {
      "children": [
        8,
        9,
        10,
        11,
        12
      ],
      "matrix": [
        100.0,
        0.0,
        0.0,
        0.0,
        0.0,
        -1.629206793918314e-05,
        -99.99999999999868,
        0.0,
        0.0,
        99.99999999999868,
        -1.629206793918314e-05,
        0.0,
        58.589656829833984,
        114.9844741821289,
        32.485286712646484,
        1.0
      ],
      "name": "WardrobeDoor1"
    },
    {
      "mesh": 3,
      "name": "WardrobeDoor1_Wardrobe Black Plastic_Material_0"
    },
    {
      "mesh": 4,
      "name": "WardrobeDoor1_Wardrobe Metal_Material_0"
    },
    {
      "mesh": 5,
      "name": "WardrobeDoor1_Wardrobe White Plastic_Material_0"
    },
    {
      "mesh": 6,
      "name": "WardrobeDoor1_Wardrobe Mirror_Material_0"
    },
    {
      "mesh": 7,
      "name": "WardrobeDoor1_Wardrobe Wood_Material_0"
    },
    {
      "children": [
        14,
        15,
        16,
        17
      ],
      "matrix": [
        100.0,
        0.0,
        0.0,
        0.0,
        0.0,
        -1.629206793918314e-05,
        -99.99999999999868,
        0.0,
        0.0,
        99.99999999999868,
        -1.629206793918314e-05,
        0.0,
        78.25050354003906,
        114.9844741821289,
        35.423614501953125,
        1.0
      ],
      "name": "WardrobeDoor2"
    },
    {
      "mesh": 8,
      "name": "WardrobeDoor2_Wardrobe Black Plastic_Material_0"
    },
    {
      "mesh": 9,
      "name": "WardrobeDoor2_Wardrobe Metal_Material_0"
    },
    {
      "mesh": 10,
      "name": "WardrobeDoor2_Wardrobe White Plastic_Material_0"
    },
    {
      "mesh": 11,
      "name": "WardrobeDoor2_Wardrobe Wood_Material_0"
    },
    {
      "children": [
        19,
        20,
        21
      ],
      "matrix": [
        100.0,
        0.0,
        0.0,
        0.0,
        -0.0,
        -1.629206793918314e-05,
        -99.99999999999868,
        0.0,
        0.0,
        99.99999999999868,
        -1.629206793918314e-05,
        0.0,
        -51.23191452026367,
        36.52421569824219,
        -23.658203125,
        1.0
      ],
      "name": "WardrobeDrawer2"
    },
    {
      "mesh": 12,
      "name": "WardrobeDrawer2_Wardrobe Wood_Material_0"
    },
    {
      "mesh": 13,
      "name": "WardrobeDrawer2_Wardrobe White Plastic_Material_0"
    },
    {
      "mesh": 14,
      "name": "WardrobeDrawer2_Wardrobe Black Plastic_Material_0"
    },
    {
      "children": [
        23,
        24,
        25
      ],
      "matrix": [
        100.0,
        0.0,
        0.0,
        0.0,
        -0.0,
        -1.629206793918314e-05,
        -99.99999999999868,
        0.0,
        0.0,
        99.99999999999868,
        -1.629206793918314e-05,
        0.0,
        -51.23191452026367,
        55.439842224121094,
        -23.658203125,
        1.0
      ],
      "name": "WardrobeDrawer1"
    },
    {
      "mesh": 15,
      "name": "WardrobeDrawer1_Wardrobe Wood_Material_0"
    },
    {
      "mesh": 16,
      "name": "WardrobeDrawer1_Wardrobe White Plastic_Material_0"
    },
    {
      "mesh": 17,
      "name": "WardrobeDrawer1_Wardrobe Black Plastic_Material_0"
    }
  ],
  "samplers": [
    {
      "magFilter": 9729,
      "minFilter": 9987,
      "wrapS": 10497,
      "wrapT": 10497
    }
  ],
  "scene": 0,
  "scenes": [
    {
      "name": "Sketchfab_Scene",
      "nodes": [
        0
      ]
    }
  ],
  "textures": [
    {
      "sampler": 0,
      "source": 0
    },
    {
      "sampler": 0,
      "source": 1
    },
    {
      "sampler": 0,
      "source": 2
    },
    {
      "sampler": 0,
      "source": 3
    },
    {
      "sampler": 0,
      "source": 4
    },
    {
      "sampler": 0,
      "source": 5
    },
    {
      "sampler": 0,
      "source": 6
    },
    {
      "sampler": 0,
      "source": 7
    },
    {
      "sampler": 0,
      "source": 8
    },
    {
      "sampler": 0,
      "source": 9
    }
  ]
}
